<svg width="784" height="227" viewBox="0 0 784 227" fill="none" xmlns="http://www.w3.org/2000/svg">
<path opacity="0.2" d="M83.5094 91.3752L42.1094 91.2752L20.4094 113.175V157.175L56.1094 192.875H245.309L285.909 149.775V102.875L245.309 59.9752H153.209L108.909 104.175L83.5094 91.3752Z" fill="#FF8A8A"/>
<path opacity="0.2" d="M56.6094 192.775V157.175H21.0094L56.6094 192.775Z" fill="#FF8A8A"/>
<path opacity="0.2" d="M83.9094 91.6752L56.0094 105.775L42.6094 91.4752L83.9094 91.6752Z" fill="#FF8A8A"/>
<path opacity="0.2" d="M245.409 60.1752V103.075H285.909L245.409 60.1752Z" fill="#FF8A8A"/>
<path opacity="0.2" d="M285.909 149.875L243.109 152.275L245.409 192.775L285.909 149.875Z" fill="#FF8A8A"/>
<path opacity="0.2" d="M153.209 60.1752V193.475L56.4094 192.775L38.6094 174.875L153.209 60.1752Z" fill="#FF8A8A"/>
<path opacity="0.2" d="M42.6094 91.4752L133.009 193.275L245.409 192.775L258.609 179.075L83.9094 91.6752L42.6094 91.4752Z" fill="#FF8A8A"/>
<path opacity="0.2" d="M83.5094 91.3752L42.1094 91.2752L20.4094 113.175V157.175L56.1094 192.875H245.309L285.909 149.775V102.875L245.309 59.9752H153.209L108.909 104.175L83.5094 91.3752Z" fill="#FF8A8A"/>
<path opacity="0.2" d="M56.6094 192.775V157.175H21.0094L56.6094 192.775Z" fill="#FF8A8A"/>
<path opacity="0.2" d="M83.9094 91.6752L56.0094 105.775L42.6094 91.4752L83.9094 91.6752Z" fill="#FF8A8A"/>
<path opacity="0.2" d="M245.409 60.1752V103.075H285.909L245.409 60.1752Z" fill="#FF8A8A"/>
<path opacity="0.2" d="M285.909 149.875L243.109 152.275L245.409 192.775L285.909 149.875Z" fill="#FF8A8A"/>
<path opacity="0.2" d="M153.209 60.1752V193.475L56.4094 192.775L38.6094 174.875L153.209 60.1752Z" fill="#FF8A8A"/>
<path opacity="0.2" d="M42.6094 91.4752L133.009 193.275L245.409 192.775L258.609 179.075L83.9094 91.6752L42.6094 91.4752Z" fill="#FF8A8A"/>
<path d="M485.509 67.5752C479.509 67.5752 475.076 66.0086 472.209 62.8752C469.343 59.7419 467.909 55.7752 467.909 50.9752C467.909 46.0419 469.343 42.0086 472.209 38.8752C475.076 35.7419 479.509 34.1752 485.509 34.1752C491.509 34.1752 495.943 35.7419 498.809 38.8752C501.676 42.0086 503.109 46.0419 503.109 50.9752C503.109 55.7752 501.676 59.7419 498.809 62.8752C495.943 66.0086 491.509 67.5752 485.509 67.5752Z" fill="#B5B2F9"/>
<path d="M472.909 78.3752H465.609C461.509 78.3752 458.309 81.5752 458.309 85.6752V94.8752C458.309 98.8752 461.509 102.175 465.609 102.175C469.609 102.175 472.909 105.375 472.909 109.475V180.675C472.909 184.675 476.109 187.975 480.209 187.975H497.809C501.809 187.975 505.109 184.675 505.109 180.675V102.175V85.6752C505.109 81.5752 501.809 78.3752 497.809 78.3752H472.909Z" fill="#B5B2F9"/>
<path d="M530.509 180.675V85.6752C530.509 81.5752 533.709 78.3752 537.809 78.3752H548.809C552.809 78.3752 556.109 81.5752 556.109 85.6752V125.375H554.309C554.309 114.175 555.743 104.842 558.609 97.3752C561.476 89.9086 565.843 84.3086 571.709 80.5752C577.576 76.8419 584.709 74.9752 593.109 74.9752H594.509C607.309 74.9752 617.076 79.1419 623.809 87.4752C630.543 95.8086 633.909 108.442 633.909 125.375V180.675C633.909 184.675 630.609 187.975 626.609 187.975H609.009C604.909 187.975 601.709 184.675 601.709 180.675V123.575C601.709 117.709 600.009 112.942 596.609 109.275C593.209 105.609 588.576 103.775 582.709 103.775C576.709 103.775 571.876 105.642 568.209 109.375C564.543 113.109 562.709 118.042 562.709 124.175V180.675C562.709 184.675 559.409 187.975 555.409 187.975H537.809C533.709 187.975 530.509 184.675 530.509 180.675Z" fill="#B5B2F9"/>
<path d="M656.909 180.675V49.2752C656.909 45.1752 660.109 41.9752 664.209 41.9752H681.809C685.809 41.9752 689.109 45.1752 689.109 49.2752V180.675C689.109 184.675 685.809 187.975 681.809 187.975H664.209C660.109 187.975 656.909 184.675 656.909 180.675Z" fill="#B5B2F9"/>
<path d="M731.909 184.775L699.709 136.775H684.309L726.709 81.1752C728.109 79.3752 730.209 78.3752 732.509 78.3752H747.609C753.709 78.3752 757.109 85.2752 753.409 90.0752L720.509 132.975L720.909 117.175L762.309 176.475C765.609 181.275 762.209 187.975 756.309 187.975H738.009C735.509 187.975 733.309 186.775 731.909 184.775Z" fill="#B5B2F9"/>
<path d="M326.509 41.9752H345.209C348.409 41.9752 351.309 44.0752 352.209 47.2752L384.809 161.375H391.709L421.809 47.3752C422.709 44.1752 425.609 41.9752 428.909 41.9752H446.409C451.309 41.9752 454.809 46.5752 453.409 51.2752L416.209 182.675C415.309 185.775 412.409 187.975 409.209 187.975H366.709C363.509 187.975 360.609 185.875 359.709 182.775L319.609 51.3752C318.109 46.6752 321.609 41.9752 326.509 41.9752Z" fill="#B5B2F9"/>
<mask id="mask0_89_1287" style="mask-type:luminance" maskUnits="userSpaceOnUse" x="319" y="41" width="135" height="147">
<path d="M326.549 41.9552H345.179C348.439 41.9552 351.309 44.1152 352.199 47.2452L384.799 161.355H391.689L421.849 47.3852C422.699 44.1852 425.589 41.9552 428.909 41.9552H446.429C451.269 41.9552 454.779 46.5852 453.449 51.2452L416.189 182.645C415.299 185.785 412.439 187.955 409.169 187.955H366.689C363.479 187.955 360.649 185.855 359.709 182.785L319.569 51.3852C318.139 46.6952 321.649 41.9552 326.549 41.9552Z" fill="white"/>
</mask>
<g mask="url(#mask0_89_1287)">
<path d="M411.609 393.975H316.609V-171.925H411.609V393.975Z" fill="#FF8A8A"/>
<path d="M415.109 393.975H320.109V-171.925H415.109V393.975Z" fill="#FF8B8B"/>
<path d="M418.609 393.975H323.709V-171.925H418.609V393.975Z" fill="#FE8B8C"/>
<path d="M422.109 393.975H327.209V-171.925H422.109V393.975Z" fill="#FE8C8D"/>
<path d="M425.609 393.975H330.709V-171.925H425.609V393.975Z" fill="#FD8D8E"/>
<path d="M429.109 393.975H334.209V-171.925H429.109V393.975Z" fill="#FD8D8F"/>
<path d="M432.609 393.975H337.709V-171.925H432.609V393.975Z" fill="#FC8E90"/>
<path d="M436.109 393.975H341.209V-171.925H436.109V393.975Z" fill="#FC8F91"/>
<path d="M439.609 393.975H344.709V-171.925H439.609V393.975Z" fill="#FB8F92"/>
<path d="M443.109 393.975H348.209V-171.925H443.109V393.975Z" fill="#FB9093"/>
<path d="M446.609 393.975H351.709V-171.925H446.609V393.975Z" fill="#FA9194"/>
<path d="M450.109 393.975H355.209V-171.925H450.109V393.975Z" fill="#FA9195"/>
<path d="M453.609 393.975H358.709V-171.925H453.609V393.975Z" fill="#F99296"/>
<path d="M457.109 393.975H362.209V-171.925H457.109V393.975Z" fill="#F99297"/>
<path d="M460.709 393.975H365.709V-171.925H460.709V393.975Z" fill="#F89398"/>
<path d="M464.209 393.975H369.209V-171.925H464.209V393.975Z" fill="#F89499"/>
<path d="M467.709 393.975H372.709V-171.925H467.709V393.975Z" fill="#F7949A"/>
<path d="M471.209 393.975H376.209V-171.925H471.209V393.975Z" fill="#F7959B"/>
<path d="M474.709 393.975H379.709V-171.925H474.709V393.975Z" fill="#F6969C"/>
<path d="M478.209 393.975H383.209V-171.925H478.209V393.975Z" fill="#F6969D"/>
<path d="M481.709 393.975H386.709V-171.925H481.709V393.975Z" fill="#F5979E"/>
<path d="M485.209 393.975H390.209V-171.925H485.209V393.975Z" fill="#F5989F"/>
<path d="M488.709 393.975H393.809V-171.925H488.709V393.975Z" fill="#F498A0"/>
<path d="M492.209 393.975H397.309V-171.925H492.209V393.975Z" fill="#F499A1"/>
<path d="M495.709 393.975H400.809V-171.925H495.709V393.975Z" fill="#F39AA2"/>
<path d="M499.209 393.975H404.309V-171.925H499.209V393.975Z" fill="#F39AA3"/>
<path d="M502.709 393.975H407.809V-171.925H502.709V393.975Z" fill="#F29BA4"/>
<path d="M506.209 393.975H411.309V-171.925H506.209V393.975Z" fill="#F29CA5"/>
<path d="M509.709 393.975H414.809V-171.925H509.709V393.975Z" fill="#F19CA6"/>
<path d="M513.209 393.975H418.309V-171.925H513.209V393.975Z" fill="#F19DA7"/>
<path d="M516.709 393.975H421.809V-171.925H516.709V393.975Z" fill="#F09EA8"/>
<path d="M520.209 393.975H425.309V-171.925H520.209V393.975Z" fill="#F09EA9"/>
<path d="M523.709 393.975H428.809V-171.925H523.709V393.975Z" fill="#EF9FAA"/>
<path d="M527.209 393.975H432.309V-171.925H527.209V393.975Z" fill="#EFA0AB"/>
<path d="M530.809 393.975H435.809V-171.925H530.809V393.975Z" fill="#EFA0AC"/>
<path d="M534.309 393.975H439.309V-171.925H534.309V393.975Z" fill="#EEA1AD"/>
<path d="M537.809 393.975H442.809V-171.925H537.809V393.975Z" fill="#EEA2AE"/>
<path d="M541.309 393.975H446.309V-171.925H541.309V393.975Z" fill="#EDA2AF"/>
<path d="M544.809 393.975H449.809V-171.925H544.809V393.975Z" fill="#EDA3B0"/>
<path d="M548.309 393.975H453.309V-171.925H548.309V393.975Z" fill="#ECA3B1"/>
</g>
<mask id="mask1_89_1287" style="mask-type:luminance" maskUnits="userSpaceOnUse" x="467" y="34" width="37" height="34">
<path d="M485.489 67.5552C479.489 67.5552 475.056 65.9886 472.189 62.8552C469.316 59.7219 467.883 55.7552 467.889 50.9552C467.883 46.0219 469.316 41.9886 472.189 38.8552C475.056 35.7219 479.489 34.1552 485.489 34.1552C491.483 34.1552 495.916 35.7219 498.789 38.8552C501.656 41.9886 503.089 46.0219 503.089 50.9552C503.089 55.7552 501.656 59.7219 498.789 62.8552C495.916 65.9886 491.483 67.5552 485.489 67.5552Z" fill="white"/>
</mask>
<g mask="url(#mask1_89_1287)">
<path d="M471.209 393.975H376.209V-171.925H471.209V393.975Z" fill="#F7959B"/>
<path d="M474.709 393.975H379.709V-171.925H474.709V393.975Z" fill="#F6969C"/>
<path d="M478.209 393.975H383.209V-171.925H478.209V393.975Z" fill="#F6969D"/>
<path d="M481.709 393.975H386.709V-171.925H481.709V393.975Z" fill="#F5979E"/>
<path d="M485.209 393.975H390.209V-171.925H485.209V393.975Z" fill="#F5989F"/>
<path d="M488.709 393.975H393.809V-171.925H488.709V393.975Z" fill="#F498A0"/>
<path d="M492.209 393.975H397.309V-171.925H492.209V393.975Z" fill="#F499A1"/>
<path d="M495.709 393.975H400.809V-171.925H495.709V393.975Z" fill="#F39AA2"/>
<path d="M499.209 393.975H404.309V-171.925H499.209V393.975Z" fill="#F39AA3"/>
<path d="M502.709 393.975H407.809V-171.925H502.709V393.975Z" fill="#F29BA4"/>
<path d="M506.209 393.975H411.309V-171.925H506.209V393.975Z" fill="#F29CA5"/>
<path d="M509.709 393.975H414.809V-171.925H509.709V393.975Z" fill="#F19CA6"/>
<path d="M513.209 393.975H418.309V-171.925H513.209V393.975Z" fill="#F19DA7"/>
<path d="M516.709 393.975H421.809V-171.925H516.709V393.975Z" fill="#F09EA8"/>
<path d="M520.209 393.975H425.309V-171.925H520.209V393.975Z" fill="#F09EA9"/>
<path d="M523.709 393.975H428.809V-171.925H523.709V393.975Z" fill="#EF9FAA"/>
<path d="M527.209 393.975H432.309V-171.925H527.209V393.975Z" fill="#EFA0AB"/>
<path d="M530.809 393.975H435.809V-171.925H530.809V393.975Z" fill="#EFA0AC"/>
<path d="M534.309 393.975H439.309V-171.925H534.309V393.975Z" fill="#EEA1AD"/>
<path d="M537.809 393.975H442.809V-171.925H537.809V393.975Z" fill="#EEA2AE"/>
<path d="M541.309 393.975H446.309V-171.925H541.309V393.975Z" fill="#EDA2AF"/>
<path d="M544.809 393.975H449.809V-171.925H544.809V393.975Z" fill="#EDA3B0"/>
<path d="M548.309 393.975H453.309V-171.925H548.309V393.975Z" fill="#ECA3B1"/>
<path d="M551.809 393.975H456.809V-171.925H551.809V393.975Z" fill="#ECA4B2"/>
<path d="M555.309 393.975H460.309V-171.925H555.309V393.975Z" fill="#EBA5B3"/>
<path d="M558.809 393.975H463.909V-171.925H558.809V393.975Z" fill="#EBA5B4"/>
<path d="M562.309 393.975H467.409V-171.925H562.309V393.975Z" fill="#EAA6B5"/>
<path d="M565.809 393.975H470.909V-171.925H565.809V393.975Z" fill="#EAA7B6"/>
<path d="M569.309 393.975H474.409V-171.925H569.309V393.975Z" fill="#E9A7B7"/>
<path d="M572.809 393.975H477.909V-171.925H572.809V393.975Z" fill="#E9A8B8"/>
<path d="M576.309 393.975H481.409V-171.925H576.309V393.975Z" fill="#E8A9B9"/>
<path d="M579.809 393.975H484.909V-171.925H579.809V393.975Z" fill="#E8A9BA"/>
<path d="M583.309 393.975H488.409V-171.925H583.309V393.975Z" fill="#E7AABB"/>
<path d="M586.809 393.975H491.909V-171.925H586.809V393.975Z" fill="#E7ABBC"/>
<path d="M590.309 393.975H495.409V-171.925H590.309V393.975Z" fill="#E6ABBC"/>
<path d="M593.809 393.975H498.909V-171.925H593.809V393.975Z" fill="#E6ACBD"/>
<path d="M597.309 393.975H502.409V-171.925H597.309V393.975Z" fill="#E5ADBE"/>
</g>
<mask id="mask2_89_1287" style="mask-type:luminance" maskUnits="userSpaceOnUse" x="458" y="78" width="48" height="110">
<path d="M472.889 78.3552H465.589C461.549 78.3552 458.289 81.6252 458.289 85.6552V94.8552C458.289 98.8852 461.549 102.155 465.589 102.155C469.619 102.155 472.889 105.425 472.889 109.455V180.655C472.889 184.685 476.149 187.955 480.189 187.955H497.789C501.819 187.955 505.089 184.685 505.089 180.655V102.155V85.6552C505.089 81.6252 501.819 78.3552 497.789 78.3552H472.889Z" fill="white"/>
</mask>
<g mask="url(#mask2_89_1287)">
<path d="M460.709 393.975H365.709V-171.925H460.709V393.975Z" fill="#F89398"/>
<path d="M464.209 393.975H369.209V-171.925H464.209V393.975Z" fill="#F89499"/>
<path d="M467.709 393.975H372.709V-171.925H467.709V393.975Z" fill="#F7949A"/>
<path d="M471.209 393.975H376.209V-171.925H471.209V393.975Z" fill="#F7959B"/>
<path d="M474.709 393.975H379.709V-171.925H474.709V393.975Z" fill="#F6969C"/>
<path d="M478.209 393.975H383.209V-171.925H478.209V393.975Z" fill="#F6969D"/>
<path d="M481.709 393.975H386.709V-171.925H481.709V393.975Z" fill="#F5979E"/>
<path d="M485.209 393.975H390.209V-171.925H485.209V393.975Z" fill="#F5989F"/>
<path d="M488.709 393.975H393.809V-171.925H488.709V393.975Z" fill="#F498A0"/>
<path d="M492.209 393.975H397.309V-171.925H492.209V393.975Z" fill="#F499A1"/>
<path d="M495.709 393.975H400.809V-171.925H495.709V393.975Z" fill="#F39AA2"/>
<path d="M499.209 393.975H404.309V-171.925H499.209V393.975Z" fill="#F39AA3"/>
<path d="M502.709 393.975H407.809V-171.925H502.709V393.975Z" fill="#F29BA4"/>
<path d="M506.209 393.975H411.309V-171.925H506.209V393.975Z" fill="#F29CA5"/>
<path d="M509.709 393.975H414.809V-171.925H509.709V393.975Z" fill="#F19CA6"/>
<path d="M513.209 393.975H418.309V-171.925H513.209V393.975Z" fill="#F19DA7"/>
<path d="M516.709 393.975H421.809V-171.925H516.709V393.975Z" fill="#F09EA8"/>
<path d="M520.209 393.975H425.309V-171.925H520.209V393.975Z" fill="#F09EA9"/>
<path d="M523.709 393.975H428.809V-171.925H523.709V393.975Z" fill="#EF9FAA"/>
<path d="M527.209 393.975H432.309V-171.925H527.209V393.975Z" fill="#EFA0AB"/>
<path d="M530.809 393.975H435.809V-171.925H530.809V393.975Z" fill="#EFA0AC"/>
<path d="M534.309 393.975H439.309V-171.925H534.309V393.975Z" fill="#EEA1AD"/>
<path d="M537.809 393.975H442.809V-171.925H537.809V393.975Z" fill="#EEA2AE"/>
<path d="M541.309 393.975H446.309V-171.925H541.309V393.975Z" fill="#EDA2AF"/>
<path d="M544.809 393.975H449.809V-171.925H544.809V393.975Z" fill="#EDA3B0"/>
<path d="M548.309 393.975H453.309V-171.925H548.309V393.975Z" fill="#ECA3B1"/>
<path d="M551.809 393.975H456.809V-171.925H551.809V393.975Z" fill="#ECA4B2"/>
<path d="M555.309 393.975H460.309V-171.925H555.309V393.975Z" fill="#EBA5B3"/>
<path d="M558.809 393.975H463.909V-171.925H558.809V393.975Z" fill="#EBA5B4"/>
<path d="M562.309 393.975H467.409V-171.925H562.309V393.975Z" fill="#EAA6B5"/>
<path d="M565.809 393.975H470.909V-171.925H565.809V393.975Z" fill="#EAA7B6"/>
<path d="M569.309 393.975H474.409V-171.925H569.309V393.975Z" fill="#E9A7B7"/>
<path d="M572.809 393.975H477.909V-171.925H572.809V393.975Z" fill="#E9A8B8"/>
<path d="M576.309 393.975H481.409V-171.925H576.309V393.975Z" fill="#E8A9B9"/>
<path d="M579.809 393.975H484.909V-171.925H579.809V393.975Z" fill="#E8A9BA"/>
<path d="M583.309 393.975H488.409V-171.925H583.309V393.975Z" fill="#E7AABB"/>
<path d="M586.809 393.975H491.909V-171.925H586.809V393.975Z" fill="#E7ABBC"/>
<path d="M590.309 393.975H495.409V-171.925H590.309V393.975Z" fill="#E6ABBC"/>
<path d="M593.809 393.975H498.909V-171.925H593.809V393.975Z" fill="#E6ACBD"/>
<path d="M597.309 393.975H502.409V-171.925H597.309V393.975Z" fill="#E5ADBE"/>
</g>
<mask id="mask3_89_1287" style="mask-type:luminance" maskUnits="userSpaceOnUse" x="530" y="74" width="104" height="114">
<path d="M530.489 180.655V85.6552C530.489 81.6252 533.759 78.3552 537.789 78.3552H548.789C552.819 78.3552 556.089 81.6252 556.089 85.6552V125.355H554.289C554.283 114.155 555.716 104.822 558.589 97.3552C561.449 89.8886 565.816 84.2886 571.689 80.5552C577.556 76.8219 584.689 74.9552 593.089 74.9552H594.489C607.289 74.9552 617.056 79.1219 623.789 87.4552C630.523 95.7886 633.889 108.422 633.889 125.355V180.655C633.889 184.685 630.619 187.955 626.589 187.955H608.989C604.949 187.955 601.689 184.685 601.689 180.655V123.555C601.689 117.689 599.989 112.922 596.589 109.255C593.189 105.589 588.556 103.755 582.689 103.755C576.689 103.755 571.856 105.622 568.189 109.355C564.523 113.089 562.689 118.022 562.689 124.155V180.655C562.689 184.685 559.419 187.955 555.389 187.955H537.789C533.759 187.955 530.489 184.685 530.489 180.655Z" fill="white"/>
</mask>
<g mask="url(#mask3_89_1287)">
<path d="M530.809 393.975H435.809V-171.925H530.809V393.975Z" fill="#EFA0AC"/>
<path d="M534.309 393.975H439.309V-171.925H534.309V393.975Z" fill="#EEA1AD"/>
<path d="M537.809 393.975H442.809V-171.925H537.809V393.975Z" fill="#EEA2AE"/>
<path d="M541.309 393.975H446.309V-171.925H541.309V393.975Z" fill="#EDA2AF"/>
<path d="M544.809 393.975H449.809V-171.925H544.809V393.975Z" fill="#EDA3B0"/>
<path d="M548.309 393.975H453.309V-171.925H548.309V393.975Z" fill="#ECA3B1"/>
<path d="M551.809 393.975H456.809V-171.925H551.809V393.975Z" fill="#ECA4B2"/>
<path d="M555.309 393.975H460.309V-171.925H555.309V393.975Z" fill="#EBA5B3"/>
<path d="M558.809 393.975H463.909V-171.925H558.809V393.975Z" fill="#EBA5B4"/>
<path d="M562.309 393.975H467.409V-171.925H562.309V393.975Z" fill="#EAA6B5"/>
<path d="M565.809 393.975H470.909V-171.925H565.809V393.975Z" fill="#EAA7B6"/>
<path d="M569.309 393.975H474.409V-171.925H569.309V393.975Z" fill="#E9A7B7"/>
<path d="M572.809 393.975H477.909V-171.925H572.809V393.975Z" fill="#E9A8B8"/>
<path d="M576.309 393.975H481.409V-171.925H576.309V393.975Z" fill="#E8A9B9"/>
<path d="M579.809 393.975H484.909V-171.925H579.809V393.975Z" fill="#E8A9BA"/>
<path d="M583.309 393.975H488.409V-171.925H583.309V393.975Z" fill="#E7AABB"/>
<path d="M586.809 393.975H491.909V-171.925H586.809V393.975Z" fill="#E7ABBC"/>
<path d="M590.309 393.975H495.409V-171.925H590.309V393.975Z" fill="#E6ABBC"/>
<path d="M593.809 393.975H498.909V-171.925H593.809V393.975Z" fill="#E6ACBD"/>
<path d="M597.309 393.975H502.409V-171.925H597.309V393.975Z" fill="#E5ADBE"/>
<path d="M600.909 393.975H505.909V-171.925H600.909V393.975Z" fill="#E5ADBF"/>
<path d="M604.409 393.975H509.409V-171.925H604.409V393.975Z" fill="#E4AEC0"/>
<path d="M607.909 393.975H512.909V-171.925H607.909V393.975Z" fill="#E4AFC1"/>
<path d="M611.409 393.975H516.409V-171.925H611.409V393.975Z" fill="#E3AFC2"/>
<path d="M614.909 393.975H519.909V-171.925H614.909V393.975Z" fill="#E3B0C3"/>
<path d="M618.409 393.975H523.409V-171.925H618.409V393.975Z" fill="#E2B1C4"/>
<path d="M621.909 393.975H526.909V-171.925H621.909V393.975Z" fill="#E2B1C5"/>
<path d="M625.409 393.975H530.409V-171.925H625.409V393.975Z" fill="#E1B2C6"/>
<path d="M628.909 393.975H534.009V-171.925H628.909V393.975Z" fill="#E1B3C7"/>
<path d="M632.409 393.975H537.509V-171.925H632.409V393.975Z" fill="#E0B3C8"/>
<path d="M635.909 393.975H541.009V-171.925H635.909V393.975Z" fill="#E0B4C9"/>
<path d="M639.409 393.975H544.509V-171.925H639.409V393.975Z" fill="#DFB4CA"/>
<path d="M642.909 393.975H548.009V-171.925H642.909V393.975Z" fill="#DFB5CB"/>
<path d="M646.409 393.975H551.509V-171.925H646.409V393.975Z" fill="#DEB6CC"/>
<path d="M649.909 393.975H555.009V-171.925H649.909V393.975Z" fill="#DEB6CD"/>
<path d="M653.409 393.975H558.509V-171.925H653.409V393.975Z" fill="#DEB7CE"/>
<path d="M656.909 393.975H562.009V-171.925H656.909V393.975Z" fill="#DDB8CF"/>
<path d="M660.409 393.975H565.509V-171.925H660.409V393.975Z" fill="#DDB8D0"/>
<path d="M663.909 393.975H569.009V-171.925H663.909V393.975Z" fill="#DCB9D1"/>
<path d="M667.509 393.975H572.509V-171.925H667.509V393.975Z" fill="#DCBAD2"/>
<path d="M671.009 393.975H576.009V-171.925H671.009V393.975Z" fill="#DBBAD3"/>
<path d="M674.509 393.975H579.509V-171.925H674.509V393.975Z" fill="#DBBBD4"/>
<path d="M678.009 393.975H583.009V-171.925H678.009V393.975Z" fill="#DABCD5"/>
<path d="M681.509 393.975H586.509V-171.925H681.509V393.975Z" fill="#DABCD6"/>
<path d="M685.009 393.975H590.009V-171.925H685.009V393.975Z" fill="#D9BDD7"/>
<path d="M688.509 393.975H593.509V-171.925H688.509V393.975Z" fill="#D9BED8"/>
<path d="M692.009 393.975H597.009V-171.925H692.009V393.975Z" fill="#D8BED9"/>
<path d="M695.509 393.975H600.609V-171.925H695.509V393.975Z" fill="#D8BFDA"/>
<path d="M699.009 393.975H604.109V-171.925H699.009V393.975Z" fill="#D7C0DB"/>
<path d="M702.509 393.975H607.609V-171.925H702.509V393.975Z" fill="#D7C0DC"/>
<path d="M706.009 393.975H611.109V-171.925H706.009V393.975Z" fill="#D6C1DD"/>
<path d="M709.509 393.975H614.609V-171.925H709.509V393.975Z" fill="#D6C2DE"/>
<path d="M713.009 393.975H618.109V-171.925H713.009V393.975Z" fill="#D5C2DF"/>
<path d="M716.509 393.975H621.609V-171.925H716.509V393.975Z" fill="#D5C3E0"/>
<path d="M720.009 393.975H625.109V-171.925H720.009V393.975Z" fill="#D4C4E1"/>
<path d="M723.509 393.975H628.609V-171.925H723.509V393.975Z" fill="#D4C4E2"/>
<path d="M727.009 393.975H632.109V-171.925H727.009V393.975Z" fill="#D3C5E3"/>
</g>
<mask id="mask4_89_1287" style="mask-type:luminance" maskUnits="userSpaceOnUse" x="656" y="41" width="34" height="147">
<path d="M656.889 180.655V49.2552C656.889 45.2252 660.149 41.9552 664.189 41.9552H681.779C685.819 41.9552 689.079 45.2252 689.079 49.2552V180.655C689.079 184.685 685.819 187.955 681.779 187.955H664.189C660.149 187.955 656.889 184.685 656.889 180.655Z" fill="white"/>
</mask>
<g mask="url(#mask4_89_1287)">
<path d="M656.909 393.975H562.009V-171.925H656.909V393.975Z" fill="#DDB8CF"/>
<path d="M660.409 393.975H565.509V-171.925H660.409V393.975Z" fill="#DDB8D0"/>
<path d="M663.909 393.975H569.009V-171.925H663.909V393.975Z" fill="#DCB9D1"/>
<path d="M667.509 393.975H572.509V-171.925H667.509V393.975Z" fill="#DCBAD2"/>
<path d="M671.009 393.975H576.009V-171.925H671.009V393.975Z" fill="#DBBAD3"/>
<path d="M674.509 393.975H579.509V-171.925H674.509V393.975Z" fill="#DBBBD4"/>
<path d="M678.009 393.975H583.009V-171.925H678.009V393.975Z" fill="#DABCD5"/>
<path d="M681.509 393.975H586.509V-171.925H681.509V393.975Z" fill="#DABCD6"/>
<path d="M685.009 393.975H590.009V-171.925H685.009V393.975Z" fill="#D9BDD7"/>
<path d="M688.509 393.975H593.509V-171.925H688.509V393.975Z" fill="#D9BED8"/>
<path d="M692.009 393.975H597.009V-171.925H692.009V393.975Z" fill="#D8BED9"/>
<path d="M695.509 393.975H600.609V-171.925H695.509V393.975Z" fill="#D8BFDA"/>
<path d="M699.009 393.975H604.109V-171.925H699.009V393.975Z" fill="#D7C0DB"/>
<path d="M702.509 393.975H607.609V-171.925H702.509V393.975Z" fill="#D7C0DC"/>
<path d="M706.009 393.975H611.109V-171.925H706.009V393.975Z" fill="#D6C1DD"/>
<path d="M709.509 393.975H614.609V-171.925H709.509V393.975Z" fill="#D6C2DE"/>
<path d="M713.009 393.975H618.109V-171.925H713.009V393.975Z" fill="#D5C2DF"/>
<path d="M716.509 393.975H621.609V-171.925H716.509V393.975Z" fill="#D5C3E0"/>
<path d="M720.009 393.975H625.109V-171.925H720.009V393.975Z" fill="#D4C4E1"/>
<path d="M723.509 393.975H628.609V-171.925H723.509V393.975Z" fill="#D4C4E2"/>
<path d="M727.009 393.975H632.109V-171.925H727.009V393.975Z" fill="#D3C5E3"/>
<path d="M730.509 393.975H635.609V-171.925H730.509V393.975Z" fill="#D3C5E4"/>
<path d="M734.009 393.975H639.109V-171.925H734.009V393.975Z" fill="#D2C6E5"/>
<path d="M737.609 393.975H642.609V-171.925H737.609V393.975Z" fill="#D2C7E6"/>
<path d="M741.109 393.975H646.109V-171.925H741.109V393.975Z" fill="#D1C7E7"/>
<path d="M744.609 393.975H649.609V-171.925H744.609V393.975Z" fill="#D1C8E8"/>
<path d="M748.109 393.975H653.109V-171.925H748.109V393.975Z" fill="#D0C9E9"/>
<path d="M751.609 393.975H656.609V-171.925H751.609V393.975Z" fill="#D0C9EA"/>
<path d="M755.109 393.975H660.109V-171.925H755.109V393.975Z" fill="#CFCAEB"/>
<path d="M758.609 393.975H663.609V-171.925H758.609V393.975Z" fill="#CFCBEC"/>
<path d="M762.109 393.975H667.109V-171.925H762.109V393.975Z" fill="#CECBED"/>
<path d="M765.609 393.975H670.709V-171.925H765.609V393.975Z" fill="#CECCEE"/>
</g>
<mask id="mask5_89_1287" style="mask-type:luminance" maskUnits="userSpaceOnUse" x="684" y="78" width="80" height="110">
<path d="M731.919 184.725L699.689 136.755H684.279L726.689 81.2252C728.079 79.4152 730.219 78.3552 732.499 78.3552H747.659C753.719 78.3552 757.139 85.3052 753.449 90.1052L720.479 132.955L720.889 117.155L762.279 176.475C765.649 181.315 762.189 187.955 756.289 187.955H737.969C735.539 187.955 733.269 186.745 731.919 184.725Z" fill="white"/>
</mask>
<g mask="url(#mask5_89_1287)">
<path d="M685.009 393.975H590.009V-171.925H685.009V393.975Z" fill="#D8BCE0"/>
<path d="M688.509 393.975H593.509V-171.925H688.509V393.975Z" fill="#D7BDE0"/>
<path d="M692.009 393.975H597.009V-171.925H692.009V393.975Z" fill="#D7BEE1"/>
<path d="M695.509 393.975H600.609V-171.925H695.509V393.975Z" fill="#D7BEE2"/>
<path d="M699.009 393.975H604.109V-171.925H699.009V393.975Z" fill="#D6BFE2"/>
<path d="M702.509 393.975H607.609V-171.925H702.509V393.975Z" fill="#D6C0E3"/>
<path d="M706.009 393.975H611.109V-171.925H706.009V393.975Z" fill="#D5C0E4"/>
<path d="M709.509 393.975H614.609V-171.925H709.509V393.975Z" fill="#D5C1E4"/>
<path d="M713.009 393.975H618.109V-171.925H713.009V393.975Z" fill="#D4C2E5"/>
<path d="M716.509 393.975H621.609V-171.925H716.509V393.975Z" fill="#D4C2E5"/>
<path d="M720.009 393.975H625.109V-171.925H720.009V393.975Z" fill="#D4C3E6"/>
<path d="M723.509 393.975H628.609V-171.925H723.509V393.975Z" fill="#D3C4E7"/>
<path d="M727.009 393.975H632.109V-171.925H727.009V393.975Z" fill="#D3C4E7"/>
<path d="M730.509 393.975H635.609V-171.925H730.509V393.975Z" fill="#D2C5E8"/>
<path d="M734.009 393.975H639.109V-171.925H734.009V393.975Z" fill="#D2C6E8"/>
<path d="M737.609 393.975H642.609V-171.925H737.609V393.975Z" fill="#D1C7E9"/>
<path d="M741.109 393.975H646.109V-171.925H741.109V393.975Z" fill="#D1C7EA"/>
<path d="M744.609 393.975H649.609V-171.925H744.609V393.975Z" fill="#D1C8EA"/>
<path d="M748.109 393.975H653.109V-171.925H748.109V393.975Z" fill="#D0C9EB"/>
<path d="M751.609 393.975H656.609V-171.925H751.609V393.975Z" fill="#D0C9EC"/>
<path d="M755.109 393.975H660.109V-171.925H755.109V393.975Z" fill="#CFCAEC"/>
<path d="M758.609 393.975H663.609V-171.925H758.609V393.975Z" fill="#CFCBED"/>
<path d="M762.109 393.975H667.109V-171.925H762.109V393.975Z" fill="#CECBED"/>
<path d="M765.609 393.975H670.709V-171.925H765.609V393.975Z" fill="#CECCEE"/>
</g>
<path opacity="0.2" d="M56.6094 192.775V157.175H21.0094L56.6094 192.775Z" fill="#FF8A8A"/>
<path opacity="0.2" d="M83.9094 91.6752L56.0094 105.775L42.6094 91.4752L83.9094 91.6752Z" fill="#FF8A8A"/>
<path opacity="0.2" d="M245.409 60.1752V103.075H285.909L245.409 60.1752Z" fill="#FF8A8A"/>
<path opacity="0.2" d="M285.909 149.875L243.109 152.275L245.409 192.775L285.909 149.875Z" fill="#FF8A8A"/>
<path opacity="0.2" d="M153.209 60.1752V193.475L56.4094 192.775L38.6094 174.875L153.209 60.1752Z" fill="#FF8A8A"/>
<path opacity="0.2" d="M42.6094 91.4752L133.009 193.275L245.409 192.775L258.609 179.075L83.9094 91.6752L42.6094 91.4752Z" fill="#FF8A8A"/>
<path opacity="0.2" d="M56.6094 192.775V157.175H21.0094L56.6094 192.775Z" fill="#FF8A8A"/>
<path opacity="0.2" d="M83.9094 91.6752L56.0094 105.775L42.6094 91.4752L83.9094 91.6752Z" fill="#FF8A8A"/>
<path opacity="0.2" d="M245.409 60.1752V103.075H285.909L245.409 60.1752Z" fill="#FF8A8A"/>
<path opacity="0.2" d="M285.909 149.875L243.109 152.275L245.409 192.775L285.909 149.875Z" fill="#FF8A8A"/>
<path opacity="0.2" d="M153.209 60.1752V193.475L56.4094 192.775L38.6094 174.875L153.209 60.1752Z" fill="#FF8A8A"/>
<path opacity="0.2" d="M42.6094 91.4752L133.009 193.275L245.409 192.775L258.609 179.075L83.9094 91.6752L42.6094 91.4752Z" fill="#FF8A8A"/>
</svg>
